<svg width="40" height="40" viewBox="0 0 40 40" fill="none" xmlns="http://www.w3.org/2000/svg">
<path fill-rule="evenodd" clip-rule="evenodd" d="M12.9288 14.7C12.44 14.2125 12.44 13.4125 12.9288 12.925C13.4163 12.4375 14.2087 12.4375 14.6975 12.925L19.9925 18.2249L25.325 12.8876C25.8175 12.4001 26.615 12.4001 27.1075 12.8876C27.5987 13.3876 27.5987 14.1875 27.1075 14.675L21.775 20.0125L27.07 25.3C27.5588 25.7875 27.5588 26.5875 27.07 27.075C26.5838 27.5625 25.7913 27.5625 25.3025 27.075L20.0075 21.7751L14.635 27.15C14.1425 27.6375 13.3463 27.6375 12.8538 27.15C12.3625 26.65 12.3625 25.8625 12.8538 25.3625L18.225 19.9875L12.9288 14.7ZM20 40C31.0462 40 40 31.05 40 20C40 8.95 31.0462 0 20 0C8.95375 0 0 8.95 0 20C0 31.05 8.95375 40 20 40Z" fill="#B71B36"/>
</svg>
