<svg width="13" height="13" viewBox="0 0 13 13" fill="none" xmlns="http://www.w3.org/2000/svg">
<path fill-rule="evenodd" clip-rule="evenodd" d="M6.36236 2.28906H1.52941C0.684413 2.28906 0 2.97472 0 3.81934V11.4693C0 12.3146 0.684413 12.9996 1.52941 12.9996H9.94119C10.7862 12.9996 11.4706 12.3146 11.4706 11.4693V5.86983L8.47754 8.86391C8.21617 9.12799 7.87577 9.31047 7.50178 9.38701L5.4516 9.79739C4.11336 10.0647 2.93418 8.88486 3.20183 7.54677L3.61171 5.49557C3.68589 5.12564 3.86789 4.78534 4.13477 4.51873L6.36236 2.28906Z" fill="black"/>
<path fill-rule="evenodd" clip-rule="evenodd" d="M12.8845 0.951577C12.8072 0.766636 12.6939 0.597043 12.5504 0.4516C12.4093 0.309358 12.2391 0.195567 12.0502 0.117077C11.8642 0.039867 11.6631 0 11.4599 0C11.2567 0 11.0556 0.039867 10.8695 0.117077C10.6807 0.195567 10.5105 0.309358 10.3694 0.4516L9.95189 0.869211L12.1328 3.05119L12.5504 2.63286C12.6954 2.48852 12.8089 2.31864 12.8845 2.13288C13.0421 1.75318 13.0421 1.33128 12.8845 0.951577ZM11.0523 4.13279L8.8706 1.95009L5.21759 5.60599C5.1637 5.66025 5.12735 5.72793 5.11283 5.80107L4.70295 7.853C4.64942 8.12033 4.88571 8.35587 5.15259 8.3024L7.20354 7.89274C7.27816 7.87702 7.34609 7.84053 7.39854 7.78797L11.0523 4.13279Z" fill="black"/>
</svg>
